<svg width="584" height="202" viewBox="0 0 584 202" fill="none" xmlns="http://www.w3.org/2000/svg">
<path d="M270.853 57.8874C273.126 56.467 274.862 56.1293 278.381 56.1293C279.218 56.1293 280.021 55.7968 280.613 55.2049C281.204 54.613 281.537 53.8102 281.537 52.9731C281.537 52.136 281.204 51.3332 280.613 50.7413C280.021 50.1494 279.218 49.8168 278.381 49.8168C274.227 49.8168 271.166 50.2461 267.507 52.5312C267.156 52.7509 266.851 53.0377 266.61 53.3752C266.369 53.7128 266.197 54.0944 266.104 54.4985C266.01 54.9025 265.998 55.3209 266.066 55.7299C266.134 56.1389 266.283 56.5304 266.502 56.8821C266.722 57.2338 267.009 57.5388 267.346 57.7796C267.684 58.0205 268.065 58.1925 268.469 58.2858C268.873 58.3792 269.292 58.392 269.701 58.3237C270.11 58.2553 270.501 58.107 270.853 57.8874ZM307.156 57.8874C304.877 56.467 303.138 56.1293 299.61 56.1293C298.773 56.1293 297.97 55.7968 297.378 55.2049C296.786 54.613 296.453 53.8102 296.453 52.9731C296.453 52.136 296.786 51.3332 297.378 50.7413C297.97 50.1494 298.773 49.8168 299.61 49.8168C303.77 49.8168 306.834 50.2461 310.499 52.5312C311.209 52.9744 311.714 53.6817 311.903 54.4973C312.092 55.313 311.949 56.1703 311.506 56.8805C311.062 57.5908 310.355 58.0959 309.539 58.2847C308.724 58.4735 307.867 58.3306 307.156 57.8874ZM266.791 66.0273C267.233 64.2875 268.242 62.7447 269.659 61.6426C271.076 60.5406 272.82 59.9422 274.615 59.9421C278.529 59.9421 281.802 62.7511 282.506 66.4282C282.545 66.6204 282.541 66.819 282.493 67.0094C282.445 67.1997 282.355 67.3768 282.23 67.5277C282.104 67.6786 281.947 67.7994 281.768 67.8811C281.59 67.9629 281.395 68.0035 281.199 68H280.767C280.899 67.5644 280.966 67.0973 280.966 66.6302C280.966 63.8211 278.662 61.4823 275.786 61.4823C272.946 61.4823 270.635 63.7864 270.635 66.627C270.635 67.1005 270.705 67.5644 270.837 68H268.331C268.091 67.9958 267.855 67.9381 267.641 67.831C267.426 67.724 267.238 67.5703 267.09 67.3812C266.943 67.1921 266.839 66.9724 266.787 66.7381C266.736 66.5039 266.737 66.261 266.791 66.0273ZM303.072 59.9421C304.867 59.9433 306.61 60.5421 308.027 61.644C309.444 62.7458 310.453 64.2881 310.896 66.0273C310.951 66.261 310.952 66.5039 310.9 66.7381C310.848 66.9724 310.745 67.1921 310.597 67.3812C310.449 67.5703 310.261 67.724 310.047 67.831C309.832 67.9381 309.596 67.9958 309.356 68H306.815C306.951 67.5644 307.017 67.0973 307.017 66.6302C307.017 63.7896 304.713 61.4823 301.87 61.4823C299.029 61.4823 296.722 63.8211 296.687 66.627C296.687 67.1005 296.753 67.5644 296.889 68H296.488C296.292 68.003 296.098 67.962 295.92 67.8801C295.742 67.7981 295.585 67.6773 295.46 67.5264C295.335 67.3756 295.245 67.1987 295.197 67.0086C295.15 66.8185 295.145 66.6202 295.185 66.4282C295.545 64.6005 296.529 62.9546 297.968 61.7716C299.407 60.5886 301.212 59.942 303.075 59.9421H303.072Z" fill="white"/>
<path d="M278.76 66.6302C278.762 66.2433 278.687 65.8599 278.54 65.502C278.393 65.1442 278.176 64.8191 277.903 64.5455C277.629 64.2719 277.304 64.0553 276.946 63.9082C276.588 63.7611 276.205 63.6865 275.818 63.6886C275.418 63.6873 275.022 63.7667 274.653 63.9221C274.743 64.0089 274.813 64.1133 274.861 64.2289C274.908 64.3444 274.93 64.4684 274.927 64.5931C274.923 64.7178 274.894 64.8404 274.841 64.9532C274.787 65.066 274.711 65.1664 274.617 65.2481C274.523 65.3299 274.413 65.3911 274.293 65.4279C274.174 65.4648 274.049 65.4764 273.925 65.4621C273.801 65.4479 273.681 65.408 273.573 65.345C273.466 65.282 273.372 65.1973 273.299 65.0963C273.035 65.5314 272.888 66.0276 272.872 66.5365C272.857 67.0454 272.974 67.5496 273.211 68H278.393C278.631 67.5823 278.757 67.1106 278.76 66.6302ZM301.87 63.6886C301.511 63.6878 301.155 63.7519 300.819 63.878C300.969 63.9924 301.08 64.1516 301.135 64.3327C301.19 64.5139 301.187 64.7078 301.125 64.8869C301.064 65.066 300.947 65.2211 300.793 65.3301C300.638 65.4391 300.452 65.4964 300.263 65.494C300.089 65.4931 299.919 65.442 299.774 65.3468C299.628 65.2516 299.513 65.1164 299.442 64.9574C299.105 65.45 298.926 66.0333 298.928 66.6302C298.928 67.132 299.061 67.5645 299.263 68H304.477C304.693 67.5755 304.807 67.1066 304.811 66.6302C304.813 66.2433 304.739 65.8599 304.592 65.502C304.444 65.1442 304.228 64.8191 303.954 64.5455C303.681 64.2719 303.356 64.0553 302.998 63.9082C302.64 63.7611 302.256 63.6865 301.87 63.6886ZM299.304 71.1847C299.286 71.1681 299.27 71.1512 299.253 71.1342L299.25 71.131C298.967 70.8221 298.574 70.6381 298.156 70.6195C297.737 70.6008 297.329 70.7491 297.02 71.0316C296.711 71.3141 296.527 71.7078 296.508 72.126C296.49 72.5441 296.638 72.9526 296.921 73.2615L296.927 73.2646L296.93 73.271L296.943 73.2836L296.977 73.3215C297.136 73.4893 297.305 73.6474 297.482 73.7949C297.817 74.079 298.3 74.4514 298.915 74.8144C300.146 75.5371 301.958 76.2505 304.196 76.1084C304.409 76.1046 304.619 76.0575 304.814 75.9702C305.008 75.8828 305.183 75.757 305.327 75.6002C305.472 75.4435 305.583 75.259 305.654 75.0581C305.726 74.8571 305.756 74.6438 305.742 74.431C305.729 74.2182 305.672 74.0104 305.576 73.82C305.48 73.6296 305.347 73.4607 305.184 73.3233C305.02 73.186 304.831 73.0832 304.627 73.021C304.423 72.9588 304.209 72.9386 303.997 72.9616C302.776 73.0284 301.563 72.7259 300.516 72.0937C300.079 71.8368 299.672 71.5319 299.304 71.1847ZM278.535 71.1436C278.827 70.8445 279.225 70.673 279.642 70.6667C280.06 70.6604 280.463 70.8198 280.763 71.11C281.063 71.4002 281.236 71.7975 281.244 72.215C281.252 72.6324 281.094 73.036 280.805 73.3372L280.802 73.3404L280.795 73.3467L280.783 73.3593L280.751 73.3909C280.593 73.5438 280.429 73.6902 280.259 73.8296C278.417 75.3331 276.112 76.1547 273.735 76.1558C273.316 76.1558 272.915 75.9895 272.619 75.6935C272.323 75.3976 272.157 74.9962 272.157 74.5776C272.157 74.1591 272.323 73.7577 272.619 73.4617C272.915 73.1658 273.316 72.9995 273.735 72.9995C275.486 72.9969 277.175 72.3536 278.485 71.191L278.51 71.1689L278.529 71.1468L278.535 71.1436Z" fill="white"/>
<path d="M307.955 23.8125H282.676C279.239 23.812 275.849 24.6064 272.769 26.1334C269.69 27.6605 267.006 29.8789 264.926 32.6153C264.024 32.3763 263.09 32.2805 262.158 32.3312C260.04 32.4145 258.026 33.2653 256.49 34.7247C254.954 36.1842 254.001 38.1527 253.809 40.2629C253.726 41.4202 253.885 42.5822 254.277 43.6746C254.668 44.767 255.283 45.7657 256.082 46.6069C256.625 47.1561 257.231 47.6327 257.881 48.0273C257.361 50.5708 257.176 53.1716 257.332 55.7632C254.48 56.4915 251.973 58.1926 250.242 60.5728C248.511 62.9529 247.665 65.8628 247.851 68.7999C248.037 71.737 249.243 74.5169 251.26 76.6598C253.278 78.8026 255.98 80.1738 258.9 80.5366L259.005 82.1432L258.619 88.8344C258.448 91.8373 258.891 94.8437 259.922 97.6694C260.953 100.495 262.55 103.08 264.615 105.267C266.68 107.454 269.17 109.196 271.932 110.386C274.694 111.577 277.671 112.191 280.679 112.191H297.009C300.017 112.191 302.993 111.577 305.755 110.386C308.517 109.196 311.007 107.454 313.073 105.267C315.138 103.08 316.735 100.495 317.766 97.6694C318.797 94.8437 319.24 91.8373 319.068 88.8344L318.639 81.3762L318.699 80.5461C319.251 80.483 319.791 80.3851 320.315 80.2526L323.85 89.7024C322.525 90.4789 321.493 91.6701 320.913 93.0919C320.333 94.5137 320.238 96.0869 320.642 97.5684C321.045 99.0498 321.926 100.357 323.147 101.288C324.368 102.219 325.862 102.722 327.397 102.719C328.993 102.718 330.54 102.173 331.783 101.172C333.026 100.171 333.889 98.7759 334.229 97.2171C334.57 95.6584 334.367 94.0301 333.655 92.6024C332.943 91.1747 331.764 90.0334 330.314 89.3678L330.077 45.9063C330.077 33.6916 320.138 23.8125 307.955 23.8125ZM310.224 48.0052C311.285 48.6932 312.478 49.1414 313.715 49.3308C313.747 49.4665 313.772 49.6022 313.797 49.7411L312.686 75.9695C312.632 77.2431 312.322 78.4926 311.773 79.643C311.224 80.7934 310.448 81.821 309.492 82.6639C309.035 82.3857 308.515 82.2282 307.981 82.2061C307.446 82.184 306.915 82.2981 306.437 82.5377L306.02 82.746C304.429 83.5414 303.991 83.7623 303.46 83.7686C303.148 83.7749 302.21 83.6834 300.036 81.7423C298.044 79.9622 295.254 79.4162 293.351 79.2015L292.877 79.1542C293.344 78.7774 293.688 78.2692 293.863 77.6952C294.038 77.1213 294.036 76.508 293.859 75.9348L290.883 66.4219C290.214 64.3167 287.202 64.3167 286.533 66.4219L283.554 75.9317C283.372 76.517 283.375 77.144 283.56 77.728C283.746 78.3121 284.106 78.8253 284.592 79.1984C284.523 79.2053 284.453 79.2127 284.384 79.2205C282.49 79.4225 279.713 79.959 277.721 81.7423C275.543 83.6834 274.606 83.7749 274.297 83.7686C273.766 83.7623 273.324 83.5414 271.734 82.746L271.317 82.5345C270.832 82.2923 270.292 82.1793 269.75 82.2064C269.208 82.2335 268.683 82.3998 268.224 82.6892C267.26 81.8451 266.478 80.8139 265.924 79.6583C265.371 78.5026 265.058 77.2466 265.005 75.9664L263.906 50.1483C263.957 49.8547 264.014 49.5612 264.073 49.2645C265.303 49.08 266.482 48.6507 267.542 48.002C267.652 47.936 267.777 47.9012 267.905 47.9012C268.033 47.9012 268.159 47.936 268.268 48.002C269.731 48.9125 271.42 49.3951 273.143 49.3951C274.866 49.3951 276.555 48.9125 278.018 48.002C278.128 47.9377 278.253 47.9038 278.381 47.9038C278.508 47.9038 278.634 47.9377 278.744 48.002C280.208 48.912 281.898 49.3943 283.622 49.3943C285.346 49.3943 287.035 48.912 288.5 48.002C288.608 47.9385 288.732 47.905 288.858 47.905C288.984 47.905 289.107 47.9385 289.216 48.002C290.685 48.9145 292.379 49.398 294.108 49.398C295.837 49.398 297.532 48.9145 299.001 48.002C299.11 47.9376 299.234 47.9036 299.36 47.9036C299.487 47.9036 299.611 47.9376 299.72 48.002C301.189 48.9145 302.883 49.398 304.612 49.398C306.341 49.398 308.036 48.9145 309.505 48.002C309.614 47.9376 309.738 47.9036 309.864 47.9036C309.991 47.9036 310.115 47.9376 310.224 48.002V48.0052ZM254.125 68C254.125 66.6228 254.575 65.2833 255.407 64.1858C256.239 63.0882 257.407 62.2929 258.733 61.9211L259.159 74.1831C257.737 73.889 256.459 73.1133 255.542 71.987C254.625 70.8606 254.125 69.4525 254.125 68ZM318.528 74.1831L318.954 61.9211C320.318 62.3019 321.513 63.1298 322.349 64.2719C323.185 65.4139 323.614 66.8038 323.565 68.2184C323.516 69.633 322.993 70.9901 322.08 72.0718C321.168 73.1535 319.914 73.8971 318.528 74.1831ZM296.845 87.3131C295.166 89.4909 292.205 90.179 288.844 90.179C285.498 90.179 282.553 89.4972 280.868 87.3447C281.215 87.0669 281.569 86.7671 281.922 86.4514C282.354 86.0664 283.399 85.675 285.063 85.4951C286.293 85.3625 287.398 85.3783 288.235 85.3941L288.844 85.4004H291.801C292.076 85.4162 292.357 85.4414 292.644 85.473C294.332 85.6624 295.396 86.0632 295.832 86.4514C296.173 86.7544 296.51 87.0417 296.845 87.3131ZM327.397 99.5593C326.881 99.5803 326.365 99.4967 325.882 99.3134C325.398 99.1301 324.956 98.851 324.583 98.4929C324.21 98.1347 323.914 97.7048 323.711 97.2291C323.508 96.7534 323.404 96.2416 323.404 95.7245C323.404 95.2074 323.508 94.6956 323.711 94.2199C323.914 93.7442 324.21 93.3143 324.583 92.9562C324.956 92.598 325.398 92.3189 325.882 92.1356C326.365 91.9524 326.881 91.8687 327.397 91.8897C328.387 91.9298 329.324 92.3514 330.01 93.0662C330.696 93.781 331.08 94.7336 331.08 95.7245C331.08 96.7155 330.696 97.668 330.01 98.3828C329.324 99.0976 328.387 99.5192 327.397 99.5593ZM309.849 44.7479C309.115 44.7422 308.396 44.953 307.781 45.3539C306.825 45.9482 305.722 46.2632 304.597 46.2632C303.471 46.2632 302.368 45.9482 301.412 45.3539C300.794 44.9583 300.075 44.7481 299.341 44.7481C298.608 44.7481 297.889 44.9583 297.271 45.3539C296.315 45.9468 295.212 46.261 294.086 46.261C292.961 46.261 291.858 45.9468 290.902 45.3539C290.284 44.9576 289.565 44.7469 288.831 44.7469C288.097 44.7469 287.378 44.9576 286.761 45.3539C285.81 45.9458 284.712 46.2595 283.592 46.2595C282.472 46.2595 281.374 45.9458 280.423 45.3539C279.804 44.9588 279.085 44.7489 278.351 44.7489C277.617 44.7489 276.898 44.9588 276.279 45.3539C275.328 45.9452 274.231 46.2586 273.111 46.2586C271.992 46.2586 270.895 45.9452 269.944 45.3539C269.326 44.9583 268.607 44.7481 267.874 44.7481C267.14 44.7481 266.421 44.9583 265.803 45.3539C264.643 46.0553 263.282 46.3479 261.936 46.1848C260.591 46.0218 259.338 45.4125 258.38 44.4544C257.882 43.9284 257.499 43.3046 257.256 42.6226C257.012 41.9407 256.914 41.2155 256.966 40.4933C257.103 39.1513 257.723 37.9048 258.709 36.9848C259.696 36.0649 260.983 35.534 262.331 35.4906C263.54 35.418 264.739 35.7273 265.765 36.3712C266.388 36.7703 267.112 36.9824 267.852 36.9824C268.591 36.9824 269.315 36.7703 269.938 36.3712C270.89 35.7825 271.987 35.4706 273.107 35.4706C274.226 35.4706 275.323 35.7825 276.276 36.3712C276.894 36.7657 277.612 36.9753 278.346 36.9753C279.08 36.9753 279.798 36.7657 280.417 36.3712C281.356 35.7766 282.446 35.4641 283.558 35.4708C284.67 35.4775 285.756 35.8032 286.688 36.4091C287.306 36.8026 288.024 37.0115 288.757 37.0115C289.49 37.0115 290.208 36.8026 290.826 36.4091C291.782 35.8118 292.886 35.495 294.014 35.495C295.141 35.495 296.246 35.8118 297.201 36.4091C297.82 36.8026 298.538 37.0115 299.27 37.0115C300.003 37.0115 300.721 36.8026 301.339 36.4091C302.296 35.8163 303.4 35.5022 304.526 35.5022C305.651 35.5022 306.755 35.8163 307.712 36.4091C308.341 36.7928 309.066 36.993 309.803 36.9868C310.54 36.9807 311.261 36.7686 311.884 36.3744C312.914 35.7283 314.12 35.4194 315.334 35.4906C316.684 35.5493 317.97 36.0811 318.966 36.993C319.963 37.9048 320.607 39.1384 320.785 40.4775C320.832 41.207 320.728 41.9383 320.478 42.6254C320.229 43.3126 319.84 43.9407 319.336 44.4702C318.383 45.431 317.133 46.0412 315.79 46.2017C314.446 46.3621 313.087 46.0633 311.935 45.3539C311.311 44.9591 310.587 44.749 309.849 44.7479Z" fill="white"/>
<g filter="url(#filter0_d_22_33)">
<path d="M56.7032 144.828C56.7032 142.332 57.2432 140.112 58.3232 138.168C59.4032 136.2 60.9032 134.676 62.8232 133.596C64.7672 132.492 66.9632 131.94 69.4112 131.94C72.4112 131.94 74.9792 132.732 77.1152 134.316C79.2512 135.9 80.6792 138.06 81.3992 140.796H74.6312C74.1272 139.74 73.4072 138.936 72.4712 138.384C71.5592 137.832 70.5152 137.556 69.3392 137.556C67.4432 137.556 65.9072 138.216 64.7312 139.536C63.5552 140.856 62.9672 142.62 62.9672 144.828C62.9672 147.036 63.5552 148.8 64.7312 150.12C65.9072 151.44 67.4432 152.1 69.3392 152.1C70.5152 152.1 71.5592 151.824 72.4712 151.272C73.4072 150.72 74.1272 149.916 74.6312 148.86H81.3992C80.6792 151.596 79.2512 153.756 77.1152 155.34C74.9792 156.9 72.4112 157.68 69.4112 157.68C66.9632 157.68 64.7672 157.14 62.8232 156.06C60.9032 154.956 59.4032 153.432 58.3232 151.488C57.2432 149.544 56.7032 147.324 56.7032 144.828ZM99.677 137.196C101.981 137.196 103.829 137.964 105.221 139.5C106.613 141.012 107.309 143.1 107.309 145.764V157.5H101.189V146.592C101.189 145.248 100.841 144.204 100.145 143.46C99.449 142.716 98.513 142.344 97.337 142.344C96.161 142.344 95.225 142.716 94.529 143.46C93.833 144.204 93.485 145.248 93.485 146.592V157.5H87.329V130.86H93.485V140.112C94.109 139.224 94.961 138.516 96.041 137.988C97.121 137.46 98.333 137.196 99.677 137.196ZM119.903 140.76C120.623 139.656 121.523 138.792 122.603 138.168C123.683 137.52 124.883 137.196 126.203 137.196V143.712H124.511C122.975 143.712 121.823 144.048 121.055 144.72C120.287 145.368 119.903 146.52 119.903 148.176V157.5H113.747V137.412H119.903V140.76ZM134.401 135.324C133.321 135.324 132.433 135.012 131.737 134.388C131.065 133.74 130.729 132.948 130.729 132.012C130.729 131.052 131.065 130.26 131.737 129.636C132.433 128.988 133.321 128.664 134.401 128.664C135.457 128.664 136.321 128.988 136.993 129.636C137.689 130.26 138.037 131.052 138.037 132.012C138.037 132.948 137.689 133.74 136.993 134.388C136.321 135.012 135.457 135.324 134.401 135.324ZM137.461 137.412V157.5H131.305V137.412H137.461ZM152.254 157.788C150.502 157.788 148.942 157.488 147.574 156.888C146.206 156.288 145.126 155.472 144.334 154.44C143.542 153.384 143.098 152.208 143.002 150.912H149.086C149.158 151.608 149.482 152.172 150.058 152.604C150.634 153.036 151.342 153.252 152.182 153.252C152.95 153.252 153.538 153.108 153.946 152.82C154.378 152.508 154.594 152.112 154.594 151.632C154.594 151.056 154.294 150.636 153.694 150.372C153.094 150.084 152.122 149.772 150.778 149.436C149.338 149.1 148.138 148.752 147.178 148.392C146.218 148.008 145.39 147.42 144.694 146.628C143.998 145.812 143.65 144.72 143.65 143.352C143.65 142.2 143.962 141.156 144.586 140.22C145.234 139.26 146.17 138.504 147.394 137.952C148.642 137.4 150.118 137.124 151.822 137.124C154.342 137.124 156.322 137.748 157.762 138.996C159.226 140.244 160.066 141.9 160.282 143.964H154.594C154.498 143.268 154.186 142.716 153.658 142.308C153.154 141.9 152.482 141.696 151.642 141.696C150.922 141.696 150.37 141.84 149.986 142.128C149.602 142.392 149.41 142.764 149.41 143.244C149.41 143.82 149.71 144.252 150.31 144.54C150.934 144.828 151.894 145.116 153.19 145.404C154.678 145.788 155.89 146.172 156.826 146.556C157.762 146.916 158.578 147.516 159.274 148.356C159.994 149.172 160.366 150.276 160.39 151.668C160.39 152.844 160.054 153.9 159.382 154.836C158.734 155.748 157.786 156.468 156.538 156.996C155.314 157.524 153.886 157.788 152.254 157.788ZM177.513 152.28V157.5H174.381C172.149 157.5 170.409 156.96 169.161 155.88C167.913 154.776 167.289 152.988 167.289 150.516V142.524H164.841V137.412H167.289V132.516H173.445V137.412H177.477V142.524H173.445V150.588C173.445 151.188 173.589 151.62 173.877 151.884C174.165 152.148 174.645 152.28 175.317 152.28H177.513ZM208.734 137.196C211.23 137.196 213.21 137.952 214.674 139.464C216.162 140.976 216.906 143.076 216.906 145.764V157.5H210.786V146.592C210.786 145.296 210.438 144.3 209.742 143.604C209.07 142.884 208.134 142.524 206.934 142.524C205.734 142.524 204.786 142.884 204.09 143.604C203.418 144.3 203.082 145.296 203.082 146.592V157.5H196.962V146.592C196.962 145.296 196.614 144.3 195.918 143.604C195.246 142.884 194.31 142.524 193.11 142.524C191.91 142.524 190.962 142.884 190.266 143.604C189.594 144.3 189.258 145.296 189.258 146.592V157.5H183.102V137.412H189.258V139.932C189.882 139.092 190.698 138.432 191.706 137.952C192.714 137.448 193.854 137.196 195.126 137.196C196.638 137.196 197.982 137.52 199.158 138.168C200.358 138.816 201.294 139.74 201.966 140.94C202.662 139.836 203.61 138.936 204.81 138.24C206.01 137.544 207.318 137.196 208.734 137.196ZM222.147 147.42C222.147 145.356 222.531 143.544 223.299 141.984C224.091 140.424 225.159 139.224 226.503 138.384C227.847 137.544 229.347 137.124 231.003 137.124C232.419 137.124 233.655 137.412 234.711 137.988C235.791 138.564 236.619 139.32 237.195 140.256V137.412H243.351V157.5H237.195V154.656C236.595 155.592 235.755 156.348 234.675 156.924C233.619 157.5 232.383 157.788 230.967 157.788C229.335 157.788 227.847 157.368 226.503 156.528C225.159 155.664 224.091 154.452 223.299 152.892C222.531 151.308 222.147 149.484 222.147 147.42ZM237.195 147.456C237.195 145.92 236.763 144.708 235.899 143.82C235.059 142.932 234.027 142.488 232.803 142.488C231.579 142.488 230.535 142.932 229.671 143.82C228.831 144.684 228.411 145.884 228.411 147.42C228.411 148.956 228.831 150.18 229.671 151.092C230.535 151.98 231.579 152.424 232.803 152.424C234.027 152.424 235.059 151.98 235.899 151.092C236.763 150.204 237.195 148.992 237.195 147.456ZM258.137 157.788C256.385 157.788 254.825 157.488 253.457 156.888C252.089 156.288 251.009 155.472 250.217 154.44C249.425 153.384 248.981 152.208 248.885 150.912H254.969C255.041 151.608 255.365 152.172 255.941 152.604C256.517 153.036 257.225 153.252 258.065 153.252C258.833 153.252 259.421 153.108 259.829 152.82C260.261 152.508 260.477 152.112 260.477 151.632C260.477 151.056 260.177 150.636 259.577 150.372C258.977 150.084 258.005 149.772 256.661 149.436C255.221 149.1 254.021 148.752 253.061 148.392C252.101 148.008 251.273 147.42 250.577 146.628C249.881 145.812 249.533 144.72 249.533 143.352C249.533 142.2 249.845 141.156 250.469 140.22C251.117 139.26 252.053 138.504 253.277 137.952C254.525 137.4 256.001 137.124 257.705 137.124C260.225 137.124 262.205 137.748 263.645 138.996C265.109 140.244 265.949 141.9 266.165 143.964H260.477C260.381 143.268 260.069 142.716 259.541 142.308C259.037 141.9 258.365 141.696 257.525 141.696C256.805 141.696 256.253 141.84 255.869 142.128C255.485 142.392 255.293 142.764 255.293 143.244C255.293 143.82 255.593 144.252 256.193 144.54C256.817 144.828 257.777 145.116 259.073 145.404C260.561 145.788 261.773 146.172 262.709 146.556C263.645 146.916 264.461 147.516 265.157 148.356C265.877 149.172 266.249 150.276 266.273 151.668C266.273 152.844 265.937 153.9 265.265 154.836C264.617 155.748 263.669 156.468 262.421 156.996C261.197 157.524 259.769 157.788 258.137 157.788ZM298.764 140.22C298.308 139.38 297.648 138.744 296.784 138.312C295.944 137.856 294.948 137.628 293.796 137.628C291.804 137.628 290.208 138.288 289.008 139.608C287.808 140.904 287.208 142.644 287.208 144.828C287.208 147.156 287.832 148.98 289.08 150.3C290.352 151.596 292.092 152.244 294.3 152.244C295.812 152.244 297.084 151.86 298.116 151.092C299.172 150.324 299.94 149.22 300.42 147.78H292.608V143.244H306V148.968C305.544 150.504 304.764 151.932 303.66 153.252C302.58 154.572 301.2 155.64 299.52 156.456C297.84 157.272 295.944 157.68 293.832 157.68C291.336 157.68 289.104 157.14 287.136 156.06C285.192 154.956 283.668 153.432 282.564 151.488C281.484 149.544 280.944 147.324 280.944 144.828C280.944 142.332 281.484 140.112 282.564 138.168C283.668 136.2 285.192 134.676 287.136 133.596C289.08 132.492 291.3 131.94 293.796 131.94C296.82 131.94 299.364 132.672 301.428 134.136C303.516 135.6 304.896 137.628 305.568 140.22H298.764ZM320.714 157.788C318.746 157.788 316.97 157.368 315.386 156.528C313.826 155.688 312.59 154.488 311.678 152.928C310.79 151.368 310.346 149.544 310.346 147.456C310.346 145.392 310.802 143.58 311.714 142.02C312.626 140.436 313.874 139.224 315.458 138.384C317.042 137.544 318.818 137.124 320.786 137.124C322.754 137.124 324.53 137.544 326.114 138.384C327.698 139.224 328.946 140.436 329.858 142.02C330.77 143.58 331.226 145.392 331.226 147.456C331.226 149.52 330.758 151.344 329.822 152.928C328.91 154.488 327.65 155.688 326.042 156.528C324.458 157.368 322.682 157.788 320.714 157.788ZM320.714 152.46C321.89 152.46 322.886 152.028 323.702 151.164C324.542 150.3 324.962 149.064 324.962 147.456C324.962 145.848 324.554 144.612 323.738 143.748C322.946 142.884 321.962 142.452 320.786 142.452C319.586 142.452 318.59 142.884 317.798 143.748C317.006 144.588 316.61 145.824 316.61 147.456C316.61 149.064 316.994 150.3 317.762 151.164C318.554 152.028 319.538 152.46 320.714 152.46ZM348.892 137.196C351.244 137.196 353.116 137.964 354.508 139.5C355.924 141.012 356.632 143.1 356.632 145.764V157.5H350.512V146.592C350.512 145.248 350.164 144.204 349.468 143.46C348.772 142.716 347.836 142.344 346.66 142.344C345.484 142.344 344.548 142.716 343.852 143.46C343.156 144.204 342.808 145.248 342.808 146.592V157.5H336.652V137.412H342.808V140.076C343.432 139.188 344.272 138.492 345.328 137.988C346.384 137.46 347.572 137.196 348.892 137.196ZM382.005 147.132C382.005 147.708 381.969 148.308 381.897 148.932H367.965C368.061 150.18 368.457 151.14 369.153 151.812C369.873 152.46 370.749 152.784 371.781 152.784C373.317 152.784 374.385 152.136 374.985 150.84H381.537C381.201 152.16 380.589 153.348 379.701 154.404C378.837 155.46 377.745 156.288 376.425 156.888C375.105 157.488 373.629 157.788 371.997 157.788C370.029 157.788 368.277 157.368 366.741 156.528C365.205 155.688 364.005 154.488 363.141 152.928C362.277 151.368 361.845 149.544 361.845 147.456C361.845 145.368 362.265 143.544 363.105 141.984C363.969 140.424 365.169 139.224 366.705 138.384C368.241 137.544 370.005 137.124 371.997 137.124C373.941 137.124 375.669 137.532 377.181 138.348C378.693 139.164 379.869 140.328 380.709 141.84C381.573 143.352 382.005 145.116 382.005 147.132ZM375.705 145.512C375.705 144.456 375.345 143.616 374.625 142.992C373.905 142.368 373.005 142.056 371.925 142.056C370.893 142.056 370.017 142.356 369.297 142.956C368.601 143.556 368.169 144.408 368.001 145.512H375.705ZM431.978 132.228L425.39 157.5H417.938L413.906 140.868L409.73 157.5H402.278L395.87 132.228H402.458L406.094 150.624L410.594 132.228H417.362L421.682 150.624L425.354 132.228H431.978ZM443.381 140.76C444.101 139.656 445.001 138.792 446.081 138.168C447.161 137.52 448.361 137.196 449.681 137.196V143.712H447.989C446.453 143.712 445.301 144.048 444.533 144.72C443.765 145.368 443.381 146.52 443.381 148.176V157.5H437.225V137.412H443.381V140.76ZM463.928 157.788C461.96 157.788 460.184 157.368 458.6 156.528C457.04 155.688 455.804 154.488 454.892 152.928C454.004 151.368 453.56 149.544 453.56 147.456C453.56 145.392 454.016 143.58 454.928 142.02C455.84 140.436 457.088 139.224 458.672 138.384C460.256 137.544 462.032 137.124 464 137.124C465.968 137.124 467.744 137.544 469.328 138.384C470.912 139.224 472.16 140.436 473.072 142.02C473.984 143.58 474.44 145.392 474.44 147.456C474.44 149.52 473.972 151.344 473.036 152.928C472.124 154.488 470.864 155.688 469.256 156.528C467.672 157.368 465.896 157.788 463.928 157.788ZM463.928 152.46C465.104 152.46 466.1 152.028 466.916 151.164C467.756 150.3 468.176 149.064 468.176 147.456C468.176 145.848 467.768 144.612 466.952 143.748C466.16 142.884 465.176 142.452 464 142.452C462.8 142.452 461.804 142.884 461.012 143.748C460.22 144.588 459.824 145.824 459.824 147.456C459.824 149.064 460.208 150.3 460.976 151.164C461.768 152.028 462.752 152.46 463.928 152.46ZM492.105 137.196C494.457 137.196 496.329 137.964 497.721 139.5C499.137 141.012 499.845 143.1 499.845 145.764V157.5H493.725V146.592C493.725 145.248 493.377 144.204 492.681 143.46C491.985 142.716 491.049 142.344 489.873 142.344C488.697 142.344 487.761 142.716 487.065 143.46C486.369 144.204 486.021 145.248 486.021 146.592V157.5H479.865V137.412H486.021V140.076C486.645 139.188 487.485 138.492 488.541 137.988C489.597 137.46 490.785 137.196 492.105 137.196ZM513.915 137.124C515.331 137.124 516.567 137.412 517.623 137.988C518.703 138.564 519.531 139.32 520.107 140.256V137.412H526.263V157.464C526.263 159.312 525.891 160.98 525.147 162.468C524.427 163.98 523.311 165.18 521.799 166.068C520.311 166.956 518.451 167.4 516.219 167.4C513.243 167.4 510.831 166.692 508.983 165.276C507.135 163.884 506.079 161.988 505.815 159.588H511.899C512.091 160.356 512.547 160.956 513.267 161.388C513.987 161.844 514.875 162.072 515.931 162.072C517.203 162.072 518.211 161.7 518.955 160.956C519.723 160.236 520.107 159.072 520.107 157.464V154.62C519.507 155.556 518.679 156.324 517.623 156.924C516.567 157.5 515.331 157.788 513.915 157.788C512.259 157.788 510.759 157.368 509.415 156.528C508.071 155.664 507.003 154.452 506.211 152.892C505.443 151.308 505.059 149.484 505.059 147.42C505.059 145.356 505.443 143.544 506.211 141.984C507.003 140.424 508.071 139.224 509.415 138.384C510.759 137.544 512.259 137.124 513.915 137.124ZM520.107 147.456C520.107 145.92 519.675 144.708 518.811 143.82C517.971 142.932 516.939 142.488 515.715 142.488C514.491 142.488 513.447 142.932 512.583 143.82C511.743 144.684 511.323 145.884 511.323 147.42C511.323 148.956 511.743 150.18 512.583 151.092C513.447 151.98 514.491 152.424 515.715 152.424C516.939 152.424 517.971 151.98 518.811 151.092C519.675 150.204 520.107 148.992 520.107 147.456Z" fill="white"/>
</g>
<defs>
<filter id="filter0_d_22_33" x="55.7032" y="127.664" width="473.56" height="42.736" filterUnits="userSpaceOnUse" color-interpolation-filters="sRGB">
<feFlood flood-opacity="0" result="BackgroundImageFix"/>
<feColorMatrix in="SourceAlpha" type="matrix" values="0 0 0 0 0 0 0 0 0 0 0 0 0 0 0 0 0 0 127 0" result="hardAlpha"/>
<feOffset dx="1" dy="1"/>
<feGaussianBlur stdDeviation="1"/>
<feColorMatrix type="matrix" values="0 0 0 0 0 0 0 0 0 0 0 0 0 0 0 0 0 0 0.25 0"/>
<feBlend mode="normal" in2="BackgroundImageFix" result="effect1_dropShadow_22_33"/>
<feBlend mode="normal" in="SourceGraphic" in2="effect1_dropShadow_22_33" result="shape"/>
</filter>
</defs>
</svg>
